<?xml version="1.0" standalone="no"?>
<!DOCTYPE svg PUBLIC "-//W3C//DTD SVG 20010904//EN"
 "http://www.w3.org/TR/2001/REC-SVG-20010904/DTD/svg10.dtd">
<svg version="1.0" xmlns="http://www.w3.org/2000/svg"
 width="3000.000000pt" height="3073.000000pt" viewBox="0 0 3000.000000 3073.000000"
 preserveAspectRatio="xMidYMid meet">
<metadata>
Created by potrace 1.13, written by Peter Selinger 2001-2015
</metadata>
<g transform="translate(0.000000,3073.000000) scale(0.100000,-0.100000)"
fill="#000000" stroke="none">
<path d="M20738 24381 c-47 -10 -30 5 -323 -272 -137 -130 -267 -251 -288
-269 -46 -40 -196 -218 -329 -390 -73 -95 -131 -156 -243 -255 -237 -210 -353
-274 -511 -283 -55 -3 -105 0 -126 7 -42 14 -91 65 -107 110 -48 144 66 408
256 594 l49 48 66 -31 c271 -127 707 -44 773 146 22 65 -8 111 -105 159 l-35
17 28 -29 c41 -44 45 -91 13 -157 -39 -79 -117 -132 -238 -161 -139 -33 -342
-6 -447 58 l-34 21 39 34 c59 51 222 158 287 188 56 25 59 25 73 8 7 -11 25
-53 38 -94 22 -66 24 -71 25 -39 1 20 -8 66 -19 102 -24 78 -90 156 -165 196
-45 23 -61 26 -150 26 -83 -1 -107 -4 -141 -22 -50 -26 -89 -85 -109 -160 -20
-76 -19 -85 11 -145 l26 -50 -39 -32 c-218 -177 -363 -403 -363 -566 0 -113
68 -210 170 -243 223 -72 463 13 720 256 111 105 116 108 66 36 -66 -95 -126
-201 -126 -221 0 -14 8 -18 34 -18 37 0 69 22 231 160 204 175 375 275 375
220 0 -4 -41 -57 -90 -116 -123 -147 -149 -204 -116 -250 11 -14 26 -19 64
-18 95 1 213 80 421 280 l129 124 76 0 c58 0 76 -3 76 -14 0 -7 -40 -47 -88
-89 -114 -97 -173 -173 -179 -230 -6 -55 12 -72 77 -71 82 1 159 49 367 231
61 54 127 107 145 117 29 18 27 14 -19 -35 -112 -118 -163 -197 -163 -250 0
-110 157 -81 309 57 l41 36 0 -36 c0 -87 49 -126 159 -126 157 0 326 86 521
265 30 27 47 39 37 25 -40 -58 -84 -137 -95 -169 -30 -87 0 -129 85 -117 87
12 181 74 358 237 129 119 195 166 215 154 13 -8 3 -27 -69 -123 -80 -105
-163 -241 -156 -252 4 -6 21 -10 40 -10 35 0 71 26 265 190 95 81 242 182 289
198 23 8 32 7 41 -3 8 -10 -4 -31 -55 -92 -82 -96 -185 -250 -185 -275 0 -13
8 -18 31 -18 43 0 57 9 220 145 218 182 357 271 383 245 13 -13 17 -6 -96
-146 -48 -59 -95 -127 -104 -150 -15 -40 -15 -45 0 -69 9 -13 27 -27 40 -31
59 -14 200 55 304 149 79 72 89 77 59 32 -38 -58 -44 -113 -17 -147 46 -59
138 -43 271 47 l77 53 -14 -34 c-31 -73 16 -117 102 -95 51 13 138 65 197 117
43 39 51 42 42 13 -10 -32 21 -102 54 -122 37 -22 145 -23 224 -2 31 8 88 30
126 49 107 54 274 186 257 204 -2 2 -40 -26 -85 -62 -75 -61 -175 -126 -194
-126 -4 0 3 15 17 33 45 58 58 104 61 214 2 61 8 109 15 118 6 8 32 26 56 40
41 24 54 50 26 50 -17 0 -375 -269 -363 -273 13 -4 123 70 180 122 25 23 42
34 38 26 -19 -47 -96 -220 -111 -248 -23 -45 -83 -110 -117 -128 -61 -31 -119
-7 -119 50 0 26 19 51 72 91 15 11 29 30 33 42 5 19 0 25 -31 38 -43 18 -41
19 -179 -104 -44 -39 -99 -80 -123 -92 -40 -20 -44 -20 -67 -5 -37 25 -45 12
184 296 38 46 57 78 51 84 -12 12 -92 -19 -130 -51 l-30 -25 -11 28 c-13 37
-25 44 -76 44 -93 0 -268 -86 -398 -196 -173 -147 -267 -201 -300 -174 -26 21
-17 48 36 106 61 68 136 168 144 194 8 24 -19 77 -43 84 -20 7 -122 -25 -159
-49 -13 -9 -100 -76 -194 -150 -94 -74 -173 -135 -176 -135 -2 0 12 24 33 53
154 214 168 248 112 275 -24 11 -36 9 -108 -21 -84 -34 -282 -172 -368 -255
-24 -24 -46 -41 -49 -38 -6 5 -1 14 91 163 73 121 73 153 -3 153 -54 0 -121
-45 -271 -181 -74 -67 -162 -140 -195 -161 -66 -43 -108 -48 -113 -13 -4 26
42 113 121 232 68 102 70 103 188 103 39 0 69 4 69 10 0 6 -33 10 -80 10 -44
0 -80 2 -80 5 0 21 83 127 218 278 69 76 71 98 7 77 -43 -14 -170 -136 -284
-272 -70 -85 -75 -88 -115 -88 -90 0 -119 -27 -34 -32 l52 -3 -129 -114 c-116
-103 -263 -211 -287 -211 -5 0 4 19 20 43 42 62 44 71 51 197 l6 114 58 44
c38 29 55 48 49 54 -18 18 -73 -3 -111 -41 -60 -60 -152 -135 -218 -180 -67
-45 -85 -73 -30 -45 38 20 84 53 155 112 54 45 62 47 38 9 -8 -12 -33 -67 -56
-122 -51 -120 -88 -176 -142 -216 -49 -35 -99 -38 -128 -9 -33 33 -25 59 35
115 61 56 72 95 34 115 -32 18 -73 -2 -139 -69 -72 -71 -173 -141 -206 -141
-56 0 -19 71 133 257 45 57 83 107 83 113 0 15 -76 12 -115 -5 -44 -18 -154
-101 -260 -195 -94 -84 -219 -170 -246 -170 -28 0 -24 37 8 85 14 22 60 80
100 129 80 95 87 121 43 143 -14 7 -46 13 -71 13 -68 0 -78 19 -38 65 26 30
30 38 18 46 -54 34 -164 -49 -132 -100 10 -15 0 -29 -65 -93 -199 -193 -322
-288 -374 -288 -47 0 -34 31 63 159 107 142 119 172 84 207 -30 30 -64 30
-135 1 -74 -30 -162 -91 -297 -204 -62 -52 -113 -91 -113 -88 0 16 177 261
214 297 22 22 139 119 260 215 274 220 402 330 539 463 134 129 187 205 187
266 0 66 -31 82 -122 65z m47 -25 c27 -19 14 -78 -32 -145 -81 -119 -452 -460
-816 -751 l-31 -25 24 35 c14 19 74 98 134 175 313 401 569 675 667 714 32 13
32 13 54 -3z m-1449 -276 c54 -19 164 -92 164 -109 0 -5 -28 -19 -62 -31 -79
-29 -223 -99 -301 -147 l-60 -36 -18 21 c-9 12 -22 44 -27 70 -38 178 119 298
304 232z m4592 -732 c7 -7 12 -19 12 -28 0 -49 -174 -239 -274 -299 -71 -42
-129 -48 -134 -13 -5 36 49 110 157 215 127 123 202 162 239 125z"/>
<path d="M15578 24274 c-5 -4 -8 -17 -8 -28 0 -27 -111 -137 -165 -164 -78
-38 -229 -64 -395 -69 -91 -2 -161 0 -169 6 -12 8 -8 17 23 51 20 23 36 49 34
58 -6 33 -37 23 -98 -33 -47 -43 -67 -55 -83 -51 -41 9 -281 46 -407 61 -322
39 -559 0 -741 -120 -146 -98 -189 -169 -197 -325 -5 -104 18 -175 79 -244 45
-50 153 -110 190 -104 20 3 13 9 -36 31 -63 29 -127 84 -150 127 -24 48 -35
125 -25 186 29 177 175 310 415 376 74 21 101 23 350 22 207 0 296 -4 379 -17
61 -10 112 -20 115 -23 3 -4 -26 -36 -66 -73 -39 -36 -160 -152 -270 -256
-229 -221 -366 -339 -513 -447 -366 -266 -767 -423 -991 -388 -155 23 -179 76
-84 180 30 32 57 71 61 85 14 56 -42 115 -110 115 -90 0 -176 -99 -176 -203 0
-75 64 -156 149 -188 80 -30 230 -36 346 -14 266 50 588 206 873 424 123 93
261 217 501 449 124 120 221 210 216 202 -5 -8 -41 -62 -81 -120 -39 -58 -158
-242 -264 -410 -106 -168 -208 -326 -226 -351 -43 -59 -55 -90 -43 -112 6 -9
15 -17 20 -17 6 0 106 89 222 198 229 212 449 410 586 526 80 67 327 266 361
290 8 6 -50 -57 -130 -139 -330 -341 -546 -662 -526 -783 12 -79 71 -112 162
-92 85 19 167 74 343 228 l60 53 -34 -56 c-60 -100 -56 -188 9 -222 21 -12 55
-17 106 -17 175 1 345 103 624 375 l121 119 90 -3 c71 -2 90 -5 92 -17 1 -8
-43 -53 -98 -100 -191 -163 -262 -277 -211 -339 42 -52 151 -32 272 48 92 61
167 126 332 287 125 123 127 124 173 124 l47 0 -16 25 c-26 40 -21 76 16 107
l33 27 -28 1 c-46 0 -93 -26 -117 -65 -19 -31 -21 -40 -11 -61 6 -14 8 -31 4
-38 -5 -7 -75 -74 -157 -150 -299 -276 -367 -322 -422 -282 -19 14 -19 15 2
58 12 24 68 100 124 168 144 175 140 167 107 196 -18 16 -46 25 -86 30 -84 9
-88 13 -73 70 10 38 10 49 0 56 -24 15 -55 8 -82 -19 -32 -32 -41 -64 -26 -92
10 -19 0 -31 -97 -125 -131 -126 -256 -232 -329 -276 -183 -110 -319 -104
-289 15 10 36 13 38 110 74 188 70 295 136 328 204 29 58 8 109 -51 124 -60
15 -236 -55 -381 -152 -37 -24 -103 -76 -147 -116 -165 -149 -287 -226 -345
-217 -54 7 -29 103 65 253 126 200 394 529 694 850 103 110 134 161 130 210
-2 20 -6 33 -10 29z m-298 -272 c-19 -15 -97 -76 -175 -136 -202 -157 -522
-429 -754 -640 l-34 -31 40 60 c48 74 121 193 290 480 72 121 139 230 149 241
18 20 24 21 124 12 113 -9 265 2 342 27 24 7 45 13 48 14 3 0 -11 -12 -30 -27z
m253 -644 c27 -42 -69 -160 -173 -213 -59 -30 -131 -57 -137 -52 -7 8 99 146
154 199 86 84 133 104 156 66z"/>
<path d="M17688 23386 c-14 -12 -91 -76 -171 -143 -254 -213 -410 -318 -460
-311 -19 3 -22 8 -20 42 3 47 45 126 159 299 52 78 78 127 69 127 -8 0 -40 -9
-70 -21 -42 -15 -84 -45 -158 -113 -112 -100 -265 -225 -340 -275 -102 -69
-147 -71 -147 -5 0 57 47 133 146 235 52 54 94 104 94 113 0 9 -10 18 -22 21
-18 4 -39 -9 -93 -57 -133 -120 -232 -224 -254 -265 -56 -111 5 -176 130 -139
79 22 164 78 300 196 156 136 272 229 284 230 5 0 -11 -21 -36 -47 -131 -136
-209 -252 -209 -310 0 -69 60 -96 153 -69 67 19 170 86 329 213 157 126 164
131 153 112 -5 -8 -56 -81 -115 -164 -713 -1003 -877 -1263 -841 -1341 5 -13
22 -26 37 -30 63 -16 120 41 295 293 429 618 556 779 827 1054 86 88 142 152
139 160 -6 19 -292 -270 -427 -431 -136 -164 -287 -367 -504 -679 -97 -140
-187 -267 -201 -283 -31 -35 -60 -38 -49 -6 25 81 499 768 933 1353 94 127
170 233 171 236 0 4 -17 11 -38 16 -33 9 -42 7 -64 -11z"/>
<path d="M15930 22515 c0 -168 1 -175 20 -175 18 0 20 7 20 84 0 79 2 86 26
105 34 27 40 26 69 -4 22 -22 25 -32 25 -105 0 -75 1 -80 21 -80 20 0 21 4 17
96 -3 91 -5 97 -31 120 -32 27 -64 31 -93 9 -10 -8 -22 -15 -26 -15 -5 0 -8
32 -8 70 0 63 -2 70 -20 70 -19 0 -20 -7 -20 -175z"/>
<path d="M20100 22515 c0 -168 1 -175 20 -175 18 0 20 7 20 78 0 95 15 122 65
122 46 0 55 -20 55 -119 0 -74 2 -81 20 -81 18 0 20 7 20 85 0 107 -15 141
-66 151 -28 5 -42 2 -65 -15 l-29 -22 0 76 c0 68 -2 75 -20 75 -19 0 -20 -7
-20 -175z"/>
<path d="M23760 22515 c0 -168 1 -175 20 -175 18 0 20 7 20 78 0 91 15 122 60
122 45 0 60 -31 60 -122 0 -71 2 -78 20 -78 19 0 20 7 20 91 0 87 -1 92 -29
120 -35 34 -68 37 -105 8 l-26 -20 0 75 c0 69 -2 76 -20 76 -19 0 -20 -7 -20
-175z"/>
<path d="M13440 22657 c-14 -7 -31 -26 -39 -41 -18 -39 -5 -75 37 -101 86 -53
97 -62 100 -84 2 -12 -5 -32 -15 -43 -15 -17 -26 -19 -75 -14 -47 5 -58 3 -58
-9 0 -23 72 -38 120 -25 47 13 70 42 70 90 0 42 -21 66 -87 99 -50 25 -68 52
-53 80 13 25 43 35 85 27 36 -7 58 10 34 25 -21 13 -90 11 -119 -4z"/>
<path d="M17615 22658 c-31 -16 -45 -39 -45 -71 0 -45 18 -67 76 -93 34 -15
58 -33 63 -47 20 -54 -29 -89 -99 -71 -32 9 -40 8 -45 -3 -8 -22 -8 -21 35
-33 75 -20 144 13 155 76 8 44 -14 74 -80 108 -48 25 -61 36 -63 58 -5 39 34
62 88 53 32 -5 40 -4 40 8 0 8 -7 18 -16 21 -25 10 -87 6 -109 -6z"/>
<path d="M21270 22657 c-46 -23 -60 -86 -27 -125 6 -8 34 -25 61 -39 56 -28
66 -38 66 -69 0 -34 -33 -57 -77 -52 -21 3 -44 7 -52 9 -8 2 -16 -4 -19 -13
-5 -25 65 -42 118 -28 47 13 70 42 70 91 0 41 -17 61 -88 99 -39 21 -48 30
-50 57 -4 40 24 58 79 49 40 -6 63 9 38 25 -21 13 -90 11 -119 -4z"/>
<path d="M15053 22623 c-7 -2 -13 -14 -13 -25 0 -11 -8 -22 -20 -25 -11 -3
-20 -12 -20 -19 0 -8 9 -14 20 -14 18 0 20 -7 20 -81 0 -44 4 -89 10 -99 17
-32 90 -36 90 -5 0 8 -12 15 -27 17 -28 3 -28 4 -31 86 l-3 82 31 0 c20 0 30
5 30 15 0 10 -10 15 -30 15 -27 0 -30 3 -30 30 0 30 -4 33 -27 23z"/>
<path d="M15683 22623 c-7 -2 -13 -16 -13 -29 0 -15 -6 -24 -15 -24 -8 0 -15
-7 -15 -15 0 -8 7 -15 15 -15 12 0 15 -14 15 -69 0 -38 4 -81 10 -95 11 -30
44 -49 70 -41 26 8 26 35 0 35 -28 0 -40 30 -40 104 l0 66 30 0 c39 0 41 27 3
32 -22 2 -29 9 -31 31 -3 27 -7 30 -29 20z"/>
<path d="M19223 22623 c-7 -2 -13 -16 -13 -29 0 -15 -6 -24 -15 -24 -8 0 -15
-7 -15 -15 0 -8 7 -15 15 -15 12 0 15 -15 15 -76 0 -41 5 -84 10 -94 14 -26
47 -42 70 -35 25 8 26 35 2 35 -33 0 -42 22 -42 97 l0 73 30 0 c39 0 41 27 3
32 -22 2 -29 9 -31 31 -3 27 -7 30 -29 20z"/>
<path d="M19863 22623 c-7 -2 -13 -14 -13 -25 0 -11 -8 -22 -20 -25 -11 -3
-20 -12 -20 -19 0 -8 9 -14 20 -14 18 0 20 -7 20 -79 0 -44 3 -87 6 -96 8 -21
45 -35 73 -28 30 8 26 31 -6 35 -28 3 -28 4 -31 86 l-3 82 31 0 c20 0 30 5 30
15 0 10 -10 15 -30 15 -27 0 -30 3 -30 30 0 30 -4 33 -27 23z"/>
<path d="M22883 22623 c-7 -2 -13 -16 -13 -29 0 -17 -6 -24 -20 -24 -11 0 -20
-7 -20 -15 0 -8 9 -15 20 -15 18 0 20 -7 20 -81 0 -44 4 -89 10 -99 18 -33 90
-36 90 -4 0 8 -10 14 -24 14 -30 0 -36 16 -36 101 l0 69 30 0 c20 0 30 5 30
15 0 10 -10 15 -30 15 -27 0 -30 3 -30 30 0 30 -4 33 -27 23z"/>
<path d="M23518 22619 c-10 -6 -18 -19 -18 -29 0 -11 -7 -20 -15 -20 -8 0 -15
-7 -15 -15 0 -8 7 -15 15 -15 12 0 15 -13 15 -59 0 -32 3 -73 6 -90 8 -38 44
-65 74 -56 26 8 26 35 0 35 -27 0 -40 36 -40 110 0 59 0 59 32 62 43 4 48 26
6 30 -27 2 -34 8 -38 30 -4 22 -8 25 -22 17z"/>
<path d="M13663 22570 c-15 -6 -21 -15 -17 -24 5 -12 11 -13 24 -6 29 15 65
12 83 -8 26 -29 20 -39 -27 -46 -62 -10 -96 -39 -96 -81 0 -59 46 -85 104 -61
20 8 36 11 36 5 0 -5 9 -9 20 -9 18 0 20 7 20 79 0 94 -14 139 -47 152 -30 11
-71 11 -100 -1z"/>
<path d="M13940 22563 c-17 -12 -25 -13 -28 -5 -2 7 -10 12 -18 12 -11 0 -14
-22 -14 -115 0 -108 1 -115 20 -115 18 0 20 7 20 84 0 79 2 86 26 105 33 26
39 26 64 1 17 -17 20 -33 20 -105 0 -78 2 -85 20 -85 18 0 20 7 20 85 0 72 3
88 20 105 26 26 36 25 65 -5 22 -22 25 -32 25 -105 0 -75 1 -80 21 -80 20 0
21 4 17 96 -3 91 -5 97 -31 120 -34 29 -66 31 -100 3 l-27 -20 -22 20 c-26 25
-65 27 -98 4z"/>
<path d="M14284 22558 c3 -13 6 -89 6 -170 0 -141 1 -148 20 -148 18 0 20 7
20 59 l0 59 38 -15 c82 -32 150 35 139 136 -9 84 -91 127 -151 80 l-27 -21 -6
21 c-3 12 -13 21 -25 21 -16 0 -19 -5 -14 -22z m140 -19 c47 -22 58 -108 19
-151 -23 -26 -78 -23 -97 4 -25 36 -21 104 9 133 27 28 34 30 69 14z"/>
<path d="M14722 22567 c-38 -22 -56 -58 -56 -114 0 -60 26 -97 78 -111 46 -13
106 -3 106 17 0 13 -9 15 -48 13 -53 -4 -85 15 -97 56 -6 22 -5 22 79 22 96 0
101 5 72 75 -22 53 -81 71 -134 42z"/>
<path d="M15230 22567 c-31 -15 -60 -71 -60 -115 0 -73 50 -118 126 -115 48 2
64 8 64 26 0 8 -17 11 -54 9 -48 -3 -55 -1 -75 24 -38 48 -30 54 65 54 l86 0
-7 36 c-8 47 -23 70 -52 83 -31 14 -62 14 -93 -2z"/>
<path d="M15441 22519 l41 -61 -41 -59 c-41 -58 -41 -59 -17 -59 19 0 31 11
52 46 15 25 30 42 33 37 4 -4 19 -25 35 -45 15 -22 35 -38 47 -38 17 0 15 7
-21 60 l-41 60 41 60 c36 53 38 60 21 60 -13 0 -32 -17 -52 -46 l-31 -46 -30
46 c-22 34 -37 46 -55 46 -23 0 -23 -1 18 -61z"/>
<path d="M16242 22567 c-38 -22 -56 -58 -56 -114 0 -60 26 -97 78 -111 46 -13
106 -3 106 17 0 13 -9 15 -48 13 -53 -4 -85 15 -97 56 -6 22 -5 22 79 22 96 0
101 5 72 75 -22 53 -81 71 -134 42z"/>
<path d="M16631 22554 c-40 -34 -56 -89 -39 -139 18 -54 56 -79 118 -77 56 1
71 7 64 25 -3 8 -20 11 -48 9 -54 -5 -81 9 -94 48 l-11 30 85 0 c83 0 84 0 84
25 0 34 -25 82 -49 95 -34 18 -78 11 -110 -16z"/>
<path d="M17843 22570 c-40 -16 -27 -32 20 -25 34 5 48 3 60 -10 29 -28 20
-42 -29 -50 -78 -11 -116 -69 -79 -122 22 -32 61 -37 101 -14 27 16 34 17 34
6 0 -9 9 -15 21 -15 15 0 19 4 15 16 -3 9 -6 51 -6 95 0 71 -3 83 -25 104 -25
26 -70 32 -112 15z"/>
<path d="M18118 22564 c-16 -8 -28 -10 -28 -4 0 5 -9 10 -20 10 -19 0 -20 -7
-20 -115 l0 -115 25 0 c25 0 25 1 25 90 0 84 1 90 25 106 23 15 27 15 50 0 24
-16 25 -22 25 -106 0 -83 1 -90 20 -90 18 0 20 7 20 80 0 73 3 83 25 105 29
30 39 31 65 5 17 -17 20 -33 20 -105 0 -78 2 -85 20 -85 18 0 20 7 20 85 0 97
-16 141 -54 151 -29 7 -64 -2 -88 -23 -14 -13 -19 -12 -37 6 -24 24 -55 26
-93 5z"/>
<path d="M18460 22410 c0 -163 1 -170 20 -170 18 0 20 7 20 67 0 66 0 66 20
48 42 -38 130 -14 150 41 14 35 12 98 -2 129 -24 53 -96 70 -142 34 l-26 -20
0 20 c0 14 -6 21 -20 21 -19 0 -20 -7 -20 -170z m155 115 c17 -16 25 -35 25
-59 0 -71 -36 -107 -93 -92 -59 14 -62 136 -3 164 33 16 45 14 71 -13z"/>
<path d="M18878 22551 c-27 -24 -32 -36 -36 -87 -5 -71 18 -108 76 -123 45
-12 107 -1 107 19 0 11 -12 13 -50 11 -55 -2 -95 22 -95 59 0 18 7 20 80 20
l80 0 0 36 c0 26 -8 43 -29 65 -40 39 -89 40 -133 0z"/>
<path d="M19386 22548 c-59 -59 -54 -153 9 -194 27 -18 111 -24 134 -10 24 15
-1 31 -43 28 -54 -5 -81 9 -94 48 l-11 30 85 0 c83 0 84 0 84 25 0 96 -98 139
-164 73z"/>
<path d="M19615 22525 c19 -30 35 -59 35 -65 0 -6 -18 -35 -40 -65 -40 -55
-41 -55 -15 -55 18 0 31 11 50 40 14 22 29 40 34 40 4 0 20 -18 35 -40 19 -28
33 -40 51 -40 24 0 23 1 -17 60 l-42 60 42 60 c39 58 40 60 18 60 -17 0 -32
-13 -54 -46 l-30 -46 -31 46 c-20 28 -40 46 -51 46 -18 0 -16 -6 15 -55z"/>
<path d="M20398 22551 c-27 -24 -32 -36 -36 -87 -5 -71 18 -108 76 -123 45
-12 107 -1 107 19 0 11 -13 13 -52 11 -41 -2 -56 2 -72 18 -12 12 -21 30 -21
41 0 18 7 20 80 20 l80 0 0 36 c0 26 -8 43 -29 65 -40 39 -89 40 -133 0z"/>
<path d="M20812 22564 c-80 -56 -64 -200 25 -223 43 -11 104 -2 111 17 2 8
-12 12 -51 12 -48 0 -58 4 -76 26 -37 47 -29 54 58 54 44 0 83 5 86 10 11 17
-15 79 -42 100 -31 24 -80 26 -111 4z"/>
<path d="M21503 22573 c-15 -3 -23 -12 -23 -24 0 -16 3 -18 19 -9 30 15 66 12
84 -8 26 -29 20 -39 -27 -46 -61 -9 -96 -39 -96 -80 0 -56 50 -85 108 -60 24
10 38 11 40 4 2 -5 10 -10 18 -10 11 0 14 18 14 85 0 137 -29 169 -137 148z"/>
<path d="M22120 22410 c0 -163 1 -170 20 -170 18 0 20 7 20 60 0 33 2 60 3 60
2 0 18 -7 36 -16 70 -35 141 25 141 120 0 41 -5 53 -34 82 -40 40 -80 44 -120
13 l-27 -21 -6 21 c-3 11 -12 21 -19 21 -11 0 -14 -32 -14 -170z m133 131 c48
-18 60 -109 20 -153 -23 -26 -78 -24 -97 4 -25 36 -21 104 9 133 27 28 33 29
68 16z"/>
<path d="M22536 22548 c-59 -59 -54 -153 9 -194 27 -18 111 -24 134 -10 24 15
-1 31 -43 28 -54 -5 -81 9 -94 48 l-11 30 85 0 c83 0 84 0 84 25 0 96 -98 139
-164 73z"/>
<path d="M23053 22560 c-82 -50 -59 -205 34 -223 45 -8 103 4 103 22 0 13 -9
15 -54 13 -48 -3 -55 -1 -75 24 -37 48 -30 54 64 54 95 0 100 5 71 75 -24 57
-83 72 -143 35z"/>
<path d="M23272 22520 l42 -60 -42 -60 c-39 -58 -40 -60 -18 -60 17 0 32 13
53 45 l29 45 32 -45 c23 -33 38 -45 57 -45 l26 0 -41 55 c-22 30 -40 60 -40
67 0 7 16 37 35 66 32 47 34 52 15 52 -12 0 -29 -15 -44 -39 -14 -22 -29 -42
-33 -44 -5 -3 -21 14 -37 39 -20 32 -34 44 -52 44 -24 0 -24 -1 18 -60z"/>
<path d="M24061 22554 c-60 -51 -60 -152 1 -197 28 -21 112 -28 137 -13 24 15
-1 31 -43 28 -54 -5 -81 9 -94 48 l-11 30 85 0 c83 0 84 0 84 25 0 34 -25 82
-49 95 -34 18 -78 11 -110 -16z"/>
<path d="M24454 22546 c-30 -30 -34 -40 -34 -89 0 -64 24 -102 74 -115 43 -12
111 -1 111 18 0 11 -12 13 -52 11 -41 -2 -56 2 -72 18 -12 12 -21 30 -21 41 0
18 7 20 80 20 l80 0 0 36 c0 50 -45 94 -95 94 -29 0 -45 -8 -71 -34z"/>
</g>
</svg>
